<?xml version="1.0" encoding="UTF-8" standalone="no"?>
<!DOCTYPE svg PUBLIC "-//W3C//DTD SVG 1.1//EN"
 "http://www.w3.org/Graphics/SVG/1.1/DTD/svg11.dtd">
<!-- Generated by graphviz version 5.0.0 (20220707.1540)
 -->
<!-- Title: dependencies Pages: 1 -->
<svg width="464pt" height="258pt"
 viewBox="0.00 0.00 464.00 257.80" xmlns="http://www.w3.org/2000/svg" xmlns:xlink="http://www.w3.org/1999/xlink">
<g id="graph0" class="graph" transform="scale(1 1) rotate(0) translate(4 253.8)">
<title>dependencies</title>
<polygon fill="white" stroke="transparent" points="-4,4 -4,-253.8 460,-253.8 460,4 -4,4"/>
<text text-anchor="middle" x="228" y="-8.2" font-family="sans-serif" font-size="14.00">dependencies</text>
<g id="clust1" class="cluster">
<title>cluster_AppModule</title>
<polygon fill="none" stroke="black" stroke-dasharray="1,5" points="8,-108.8 8,-233.8 260,-233.8 260,-108.8 8,-108.8"/>
</g>
<g id="clust3" class="cluster">
<title>cluster_AppModule_imports</title>
<polygon fill="none" stroke="black" points="154,-116.8 154,-168.8 252,-168.8 252,-116.8 154,-116.8"/>
</g>
<g id="clust6" class="cluster">
<title>cluster_AppModule_providers</title>
<polygon fill="none" stroke="black" points="16,-116.8 16,-168.8 146,-168.8 146,-116.8 16,-116.8"/>
</g>
<g id="clust7" class="cluster">
<title>cluster_SharedModule</title>
<polygon fill="none" stroke="black" stroke-dasharray="1,5" points="282,-32.8 282,-241.8 448,-241.8 448,-32.8 282,-32.8"/>
</g>
<g id="clust10" class="cluster">
<title>cluster_SharedModule_exports</title>
<polygon fill="none" stroke="black" points="307,-181.8 307,-233.8 423,-233.8 423,-181.8 307,-181.8"/>
</g>
<g id="clust12" class="cluster">
<title>cluster_SharedModule_providers</title>
<polygon fill="none" stroke="black" points="290,-40.8 290,-92.8 440,-92.8 440,-40.8 290,-40.8"/>
</g>
<g id="clust13" class="cluster">
<title>cluster_TagModule</title>
<polygon fill="none" stroke="black" stroke-dasharray="1,5" points="132,-32.8 132,-100.8 274,-100.8 274,-32.8 132,-32.8"/>
</g>
<g id="clust18" class="cluster">
<title>cluster_TagModule_providers</title>
<polygon fill="none" stroke="black" points="140,-40.8 140,-92.8 266,-92.8 266,-40.8 140,-40.8"/>
</g>
<!-- TagModule -->
<g id="node1" class="node">
<title>TagModule</title>
<polygon fill="#8dd3c7" stroke="black" points="243.82,-160.8 240.82,-164.8 219.82,-164.8 216.82,-160.8 162.18,-160.8 162.18,-124.8 243.82,-124.8 243.82,-160.8"/>
<text text-anchor="middle" x="203" y="-138.6" font-family="Times,serif" font-size="14.00">TagModule</text>
</g>
<!-- AppModule -->
<g id="node2" class="node">
<title>AppModule</title>
<polygon fill="#8dd3c7" stroke="black" points="183.66,-225.8 180.66,-229.8 159.66,-229.8 156.66,-225.8 100.34,-225.8 100.34,-189.8 183.66,-189.8 183.66,-225.8"/>
<text text-anchor="middle" x="142" y="-203.6" font-family="Times,serif" font-size="14.00">AppModule</text>
</g>
<!-- TagModule&#45;&gt;AppModule -->
<g id="edge1" class="edge">
<title>TagModule&#45;&gt;AppModule</title>
<path fill="none" stroke="black" d="M173.09,-160.91C173.09,-160.91 173.09,-179.79 173.09,-179.79"/>
<polygon fill="black" stroke="black" points="169.59,-179.79 173.09,-189.79 176.59,-179.79 169.59,-179.79"/>
</g>
<!-- AppService -->
<g id="node3" class="node">
<title>AppService</title>
<ellipse fill="#fdb462" stroke="black" cx="81" cy="-142.8" rx="56.75" ry="18"/>
<text text-anchor="middle" x="81" y="-138.6" font-family="Times,serif" font-size="14.00">AppService</text>
</g>
<!-- AppService&#45;&gt;AppModule -->
<g id="edge2" class="edge">
<title>AppService&#45;&gt;AppModule</title>
<path fill="none" stroke="black" d="M118.9,-156.27C118.9,-156.27 118.9,-179.66 118.9,-179.66"/>
<polygon fill="black" stroke="black" points="115.4,-179.66 118.9,-189.66 122.4,-179.66 115.4,-179.66"/>
</g>
<!-- ConfigService  -->
<g id="node4" class="node">
<title>ConfigService </title>
<polygon fill="#fb8072" stroke="black" points="415.37,-225.8 314.63,-225.8 314.63,-189.8 415.37,-189.8 415.37,-225.8"/>
<text text-anchor="middle" x="365" y="-203.6" font-family="Times,serif" font-size="14.00">ConfigService </text>
</g>
<!-- SharedModule -->
<g id="node5" class="node">
<title>SharedModule</title>
<polygon fill="#8dd3c7" stroke="black" points="414.43,-160.8 411.43,-164.8 390.43,-164.8 387.43,-160.8 315.57,-160.8 315.57,-124.8 414.43,-124.8 414.43,-160.8"/>
<text text-anchor="middle" x="365" y="-138.6" font-family="Times,serif" font-size="14.00">SharedModule</text>
</g>
<!-- SharedModule&#45;&gt;ConfigService  -->
<g id="edge3" class="edge">
<title>SharedModule&#45;&gt;ConfigService </title>
<path fill="none" stroke="black" stroke-dasharray="5,2" d="M365,-160.91C365,-160.91 365,-179.79 365,-179.79"/>
<polygon fill="black" stroke="black" points="361.5,-179.79 365,-189.79 368.5,-179.79 361.5,-179.79"/>
</g>
<!-- ConfigService -->
<g id="node6" class="node">
<title>ConfigService</title>
<ellipse fill="#fdb462" stroke="black" cx="365" cy="-66.8" rx="66.64" ry="18"/>
<text text-anchor="middle" x="365" y="-62.6" font-family="Times,serif" font-size="14.00">ConfigService</text>
</g>
<!-- ConfigService&#45;&gt;SharedModule -->
<g id="edge4" class="edge">
<title>ConfigService&#45;&gt;SharedModule</title>
<path fill="none" stroke="black" d="M365,-84.81C365,-84.81 365,-114.65 365,-114.65"/>
<polygon fill="black" stroke="black" points="361.5,-114.65 365,-124.65 368.5,-114.65 361.5,-114.65"/>
</g>
<!-- TagService -->
<g id="node7" class="node">
<title>TagService</title>
<ellipse fill="#fdb462" stroke="black" cx="203" cy="-66.8" rx="55.01" ry="18"/>
<text text-anchor="middle" x="203" y="-62.6" font-family="Times,serif" font-size="14.00">TagService</text>
</g>
<!-- TagService&#45;&gt;TagModule -->
<g id="edge5" class="edge">
<title>TagService&#45;&gt;TagModule</title>
<path fill="none" stroke="black" d="M203,-84.81C203,-84.81 203,-114.65 203,-114.65"/>
<polygon fill="black" stroke="black" points="199.5,-114.65 203,-124.65 206.5,-114.65 199.5,-114.65"/>
</g>
</g>
</svg>
